<svg width="20" height="20" viewBox="0 0 20 20" fill="none" xmlns="http://www.w3.org/2000/svg">
<path d="M9.61914 13.7118C11.8704 13.7118 13.7123 11.8698 13.7123 9.61857C13.7123 7.36732 11.8704 5.52539 9.61914 5.52539" fill="#343434"/>
<path d="M9.61857 13.7118C11.8792 13.7118 13.7118 11.8792 13.7118 9.61857C13.7118 7.35797 11.8792 5.52539 9.61857 5.52539C7.35797 5.52539 5.52539 7.35797 5.52539 9.61857C5.52539 11.8792 7.35797 13.7118 9.61857 13.7118Z" stroke="#343434" stroke-width="1.5" stroke-linecap="round" stroke-linejoin="round"/>
<path d="M16.4414 9.61856H18.488" stroke="#343434" stroke-width="1.5" stroke-linecap="round" stroke-linejoin="round"/>
<path d="M0.75 9.61856H2.79659" stroke="#343434" stroke-width="1.5" stroke-linecap="round" stroke-linejoin="round"/>
<path d="M9.61914 16.4405V18.4871" stroke="#343434" stroke-width="1.5" stroke-linecap="round" stroke-linejoin="round"/>
<path d="M9.61914 0.75V2.79659" stroke="#343434" stroke-width="1.5" stroke-linecap="round" stroke-linejoin="round"/>
<path d="M15.8955 3.34241L14.4629 4.77492" stroke="#343434" stroke-width="1.5" stroke-linecap="round" stroke-linejoin="round"/>
<path d="M15.8271 15.8266L14.3945 14.3939" stroke="#343434" stroke-width="1.5" stroke-linecap="round" stroke-linejoin="round"/>
<path d="M4.91113 4.91144L3.47852 3.47876" stroke="#343434" stroke-width="1.5" stroke-linecap="round" stroke-linejoin="round"/>
<path d="M4.77441 14.4622L3.3418 15.8947" stroke="#343434" stroke-width="1.5" stroke-linecap="round" stroke-linejoin="round"/>
</svg>
